<?xml version="1.0" encoding="UTF-8" standalone="no"?>
<!DOCTYPE svg PUBLIC "-//W3C//DTD SVG 1.1//EN"
 "http://www.w3.org/Graphics/SVG/1.1/DTD/svg11.dtd">
<!-- Generated by graphviz version 2.38.0 (20140413.2041)
 -->
<!-- Title: G Pages: 1 -->
<svg width="1067pt" height="1885pt"
 viewBox="0.00 0.00 1067.21 1885.00" xmlns="http://www.w3.org/2000/svg" xmlns:xlink="http://www.w3.org/1999/xlink">
<g id="graph0" class="graph" transform="scale(1 1) rotate(0) translate(4 1881)">
<title>G</title>
<polygon fill="white" stroke="none" points="-4,4 -4,-1881 1063.21,-1881 1063.21,4 -4,4"/>
<g id="clust1" class="cluster"><title>cluster_Global</title>
<path fill="none" stroke="gray" d="M20,-206C20,-206 1039.21,-206 1039.21,-206 1045.21,-206 1051.21,-212 1051.21,-218 1051.21,-218 1051.21,-1857 1051.21,-1857 1051.21,-1863 1045.21,-1869 1039.21,-1869 1039.21,-1869 20,-1869 20,-1869 14,-1869 8,-1863 8,-1857 8,-1857 8,-218 8,-218 8,-212 14,-206 20,-206"/>
<text text-anchor="middle" x="529.606" y="-1856.2" font-family="Times,serif" font-size="11.00" fill="gray">Global</text>
</g>
<g id="clust2" class="cluster"><title>cluster_\OpenWorld</title>
<path fill="none" stroke="gray" d="M28,-214C28,-214 1031.21,-214 1031.21,-214 1037.21,-214 1043.21,-220 1043.21,-226 1043.21,-226 1043.21,-1830 1043.21,-1830 1043.21,-1836 1037.21,-1842 1031.21,-1842 1031.21,-1842 28,-1842 28,-1842 22,-1842 16,-1836 16,-1830 16,-1830 16,-226 16,-226 16,-220 22,-214 28,-214"/>
<text text-anchor="middle" x="529.606" y="-1829.2" font-family="Times,serif" font-size="11.00" fill="gray">OpenWorld</text>
</g>
<g id="clust3" class="cluster"><title>cluster_\OpenWorld\Assertions</title>
<path fill="none" stroke="gray" d="M588.261,-1709C588.261,-1709 980.807,-1709 980.807,-1709 986.807,-1709 992.807,-1715 992.807,-1721 992.807,-1721 992.807,-1803 992.807,-1803 992.807,-1809 986.807,-1815 980.807,-1815 980.807,-1815 588.261,-1815 588.261,-1815 582.261,-1815 576.261,-1809 576.261,-1803 576.261,-1803 576.261,-1721 576.261,-1721 576.261,-1715 582.261,-1709 588.261,-1709"/>
<text text-anchor="middle" x="784.534" y="-1802.2" font-family="Times,serif" font-size="11.00" fill="gray">Assertions</text>
</g>
<g id="clust4" class="cluster"><title>cluster_\OpenWorld\Assertions\GeneralClasses</title>
<path fill="none" stroke="gray" d="M878.993,-1717C878.993,-1717 972.807,-1717 972.807,-1717 978.807,-1717 984.807,-1723 984.807,-1729 984.807,-1729 984.807,-1776 984.807,-1776 984.807,-1782 978.807,-1788 972.807,-1788 972.807,-1788 878.993,-1788 878.993,-1788 872.993,-1788 866.993,-1782 866.993,-1776 866.993,-1776 866.993,-1729 866.993,-1729 866.993,-1723 872.993,-1717 878.993,-1717"/>
<text text-anchor="middle" x="925.9" y="-1775.2" font-family="Times,serif" font-size="11.00" fill="gray">GeneralClasses</text>
</g>
<g id="clust5" class="cluster"><title>cluster_\OpenWorld\Assertions\Interfaces</title>
<path fill="none" stroke="gray" d="M596.261,-1717C596.261,-1717 723.081,-1717 723.081,-1717 729.081,-1717 735.081,-1723 735.081,-1729 735.081,-1729 735.081,-1776 735.081,-1776 735.081,-1782 729.081,-1788 723.081,-1788 723.081,-1788 596.261,-1788 596.261,-1788 590.261,-1788 584.261,-1782 584.261,-1776 584.261,-1776 584.261,-1729 584.261,-1729 584.261,-1723 590.261,-1717 596.261,-1717"/>
<text text-anchor="middle" x="659.671" y="-1775.2" font-family="Times,serif" font-size="11.00" fill="gray">Interfaces</text>
</g>
<g id="clust6" class="cluster"><title>cluster_\OpenWorld\Collections</title>
<path fill="none" stroke="gray" d="M584.961,-895C584.961,-895 1020.41,-895 1020.41,-895 1026.41,-895 1032.41,-901 1032.41,-907 1032.41,-907 1032.41,-1122 1032.41,-1122 1032.41,-1128 1026.41,-1134 1020.41,-1134 1020.41,-1134 584.961,-1134 584.961,-1134 578.961,-1134 572.961,-1128 572.961,-1122 572.961,-1122 572.961,-907 572.961,-907 572.961,-901 578.961,-895 584.961,-895"/>
<text text-anchor="middle" x="802.687" y="-1121.2" font-family="Times,serif" font-size="11.00" fill="gray">Collections</text>
</g>
<g id="clust7" class="cluster"><title>cluster_\OpenWorld\Collections\GeneralClasses</title>
<path fill="none" stroke="gray" d="M839.386,-982C839.386,-982 1012.41,-982 1012.41,-982 1018.41,-982 1024.41,-988 1024.41,-994 1024.41,-994 1024.41,-1095 1024.41,-1095 1024.41,-1101 1018.41,-1107 1012.41,-1107 1012.41,-1107 839.386,-1107 839.386,-1107 833.386,-1107 827.386,-1101 827.386,-1095 827.386,-1095 827.386,-994 827.386,-994 827.386,-988 833.386,-982 839.386,-982"/>
<text text-anchor="middle" x="925.9" y="-1094.2" font-family="Times,serif" font-size="11.00" fill="gray">GeneralClasses</text>
</g>
<g id="clust8" class="cluster"><title>cluster_\OpenWorld\Collections\Interfaces</title>
<path fill="none" stroke="gray" d="M592.961,-903C592.961,-903 726.381,-903 726.381,-903 732.381,-903 738.381,-909 738.381,-915 738.381,-915 738.381,-962 738.381,-962 738.381,-968 732.381,-974 726.381,-974 726.381,-974 592.961,-974 592.961,-974 586.961,-974 580.961,-968 580.961,-962 580.961,-962 580.961,-915 580.961,-915 580.961,-909 586.961,-903 592.961,-903"/>
<text text-anchor="middle" x="659.671" y="-961.2" font-family="Times,serif" font-size="11.00" fill="gray">Interfaces</text>
</g>
<g id="clust9" class="cluster"><title>cluster_\OpenWorld\Collections\Traits</title>
<path fill="none" stroke="gray" d="M872.392,-903C872.392,-903 979.408,-903 979.408,-903 985.408,-903 991.408,-909 991.408,-915 991.408,-915 991.408,-962 991.408,-962 991.408,-968 985.408,-974 979.408,-974 979.408,-974 872.392,-974 872.392,-974 866.392,-974 860.392,-968 860.392,-962 860.392,-962 860.392,-915 860.392,-915 860.392,-909 866.392,-903 872.392,-903"/>
<text text-anchor="middle" x="925.9" y="-961.2" font-family="Times,serif" font-size="11.00" fill="gray">Traits</text>
</g>
<g id="clust10" class="cluster"><title>cluster_\OpenWorld\Data</title>
<path fill="none" stroke="gray" d="M36,-1142C36,-1142 1023.21,-1142 1023.21,-1142 1029.21,-1142 1035.21,-1148 1035.21,-1154 1035.21,-1154 1035.21,-1689 1035.21,-1689 1035.21,-1695 1029.21,-1701 1023.21,-1701 1023.21,-1701 36,-1701 36,-1701 30,-1701 24,-1695 24,-1689 24,-1689 24,-1154 24,-1154 24,-1148 30,-1142 36,-1142"/>
<text text-anchor="middle" x="529.606" y="-1688.2" font-family="Times,serif" font-size="11.00" fill="gray">Data</text>
</g>
<g id="clust11" class="cluster"><title>cluster_\OpenWorld\Data\AbstractClasses</title>
<path fill="none" stroke="gray" d="M569.857,-1291C569.857,-1291 749.485,-1291 749.485,-1291 755.485,-1291 761.485,-1297 761.485,-1303 761.485,-1303 761.485,-1404 761.485,-1404 761.485,-1410 755.485,-1416 749.485,-1416 749.485,-1416 569.857,-1416 569.857,-1416 563.857,-1416 557.857,-1410 557.857,-1404 557.857,-1404 557.857,-1303 557.857,-1303 557.857,-1297 563.857,-1291 569.857,-1291"/>
<text text-anchor="middle" x="659.671" y="-1403.2" font-family="Times,serif" font-size="11.00" fill="gray">AbstractClasses</text>
</g>
<g id="clust12" class="cluster"><title>cluster_\OpenWorld\Data\GeneralClasses</title>
<path fill="none" stroke="gray" d="M836.589,-1150C836.589,-1150 1015.21,-1150 1015.21,-1150 1021.21,-1150 1027.21,-1156 1027.21,-1162 1027.21,-1162 1027.21,-1662 1027.21,-1662 1027.21,-1668 1021.21,-1674 1015.21,-1674 1015.21,-1674 836.589,-1674 836.589,-1674 830.589,-1674 824.589,-1668 824.589,-1662 824.589,-1662 824.589,-1162 824.589,-1162 824.589,-1156 830.589,-1150 836.589,-1150"/>
<text text-anchor="middle" x="925.9" y="-1661.2" font-family="Times,serif" font-size="11.00" fill="gray">GeneralClasses</text>
</g>
<g id="clust13" class="cluster"><title>cluster_\OpenWorld\Data\GeneralClasses\Providers</title>
<path fill="none" stroke="gray" d="M844.589,-1318C844.589,-1318 1007.21,-1318 1007.21,-1318 1013.21,-1318 1019.21,-1324 1019.21,-1330 1019.21,-1330 1019.21,-1512 1019.21,-1512 1019.21,-1518 1013.21,-1524 1007.21,-1524 1007.21,-1524 844.589,-1524 844.589,-1524 838.589,-1524 832.589,-1518 832.589,-1512 832.589,-1512 832.589,-1330 832.589,-1330 832.589,-1324 838.589,-1318 844.589,-1318"/>
<text text-anchor="middle" x="925.9" y="-1511.2" font-family="Times,serif" font-size="11.00" fill="gray">Providers</text>
</g>
<g id="clust14" class="cluster"><title>cluster_\OpenWorld\Data\GeneralClasses\Providers\Conditions</title>
<path fill="none" stroke="gray" d="M852.589,-1426C852.589,-1426 999.211,-1426 999.211,-1426 1005.21,-1426 1011.21,-1432 1011.21,-1438 1011.21,-1438 1011.21,-1485 1011.21,-1485 1011.21,-1491 1005.21,-1497 999.211,-1497 999.211,-1497 852.589,-1497 852.589,-1497 846.589,-1497 840.589,-1491 840.589,-1485 840.589,-1485 840.589,-1438 840.589,-1438 840.589,-1432 846.589,-1426 852.589,-1426"/>
<text text-anchor="middle" x="925.9" y="-1484.2" font-family="Times,serif" font-size="11.00" fill="gray">Conditions</text>
</g>
<g id="clust15" class="cluster"><title>cluster_\OpenWorld\Data\GeneralClasses\SourceLoaderResults</title>
<path fill="none" stroke="gray" d="M857.791,-1158C857.791,-1158 994.009,-1158 994.009,-1158 1000.01,-1158 1006.01,-1164 1006.01,-1170 1006.01,-1170 1006.01,-1298 1006.01,-1298 1006.01,-1304 1000.01,-1310 994.009,-1310 994.009,-1310 857.791,-1310 857.791,-1310 851.791,-1310 845.791,-1304 845.791,-1298 845.791,-1298 845.791,-1170 845.791,-1170 845.791,-1164 851.791,-1158 857.791,-1158"/>
<text text-anchor="middle" x="925.9" y="-1297.2" font-family="Times,serif" font-size="11.00" fill="gray">SourceLoaderResults</text>
</g>
<g id="clust16" class="cluster"><title>cluster_\OpenWorld\Data\GeneralClasses\SourceLoaderResults\Factories</title>
<path fill="none" stroke="gray" d="M865.791,-1212C865.791,-1212 986.009,-1212 986.009,-1212 992.009,-1212 998.009,-1218 998.009,-1224 998.009,-1224 998.009,-1271 998.009,-1271 998.009,-1277 992.009,-1283 986.009,-1283 986.009,-1283 865.791,-1283 865.791,-1283 859.791,-1283 853.791,-1277 853.791,-1271 853.791,-1271 853.791,-1224 853.791,-1224 853.791,-1218 859.791,-1212 865.791,-1212"/>
<text text-anchor="middle" x="925.9" y="-1270.2" font-family="Times,serif" font-size="11.00" fill="gray">Factories</text>
</g>
<g id="clust17" class="cluster"><title>cluster_\OpenWorld\Data\GeneralClasses\SourceLoaders</title>
<path fill="none" stroke="gray" d="M869.091,-1532C869.091,-1532 982.708,-1532 982.708,-1532 988.708,-1532 994.708,-1538 994.708,-1544 994.708,-1544 994.708,-1591 994.708,-1591 994.708,-1597 988.708,-1603 982.708,-1603 982.708,-1603 869.091,-1603 869.091,-1603 863.091,-1603 857.091,-1597 857.091,-1591 857.091,-1591 857.091,-1544 857.091,-1544 857.091,-1538 863.091,-1532 869.091,-1532"/>
<text text-anchor="middle" x="925.9" y="-1590.2" font-family="Times,serif" font-size="11.00" fill="gray">SourceLoaders</text>
</g>
<g id="clust18" class="cluster"><title>cluster_\OpenWorld\Data\Interfaces</title>
<path fill="none" stroke="gray" d="M44,-1291C44,-1291 489.857,-1291 489.857,-1291 495.857,-1291 501.857,-1297 501.857,-1303 501.857,-1303 501.857,-1512 501.857,-1512 501.857,-1518 495.857,-1524 489.857,-1524 489.857,-1524 44,-1524 44,-1524 38,-1524 32,-1518 32,-1512 32,-1512 32,-1303 32,-1303 32,-1297 38,-1291 44,-1291"/>
<text text-anchor="middle" x="266.928" y="-1511.2" font-family="Times,serif" font-size="11.00" fill="gray">Interfaces</text>
</g>
<g id="clust19" class="cluster"><title>cluster_\OpenWorld\Exceptions</title>
<path fill="none" stroke="gray" d="M591.562,-222C591.562,-222 1022.31,-222 1022.31,-222 1028.31,-222 1034.31,-228 1034.31,-234 1034.31,-234 1034.31,-875 1034.31,-875 1034.31,-881 1028.31,-887 1022.31,-887 1022.31,-887 591.562,-887 591.562,-887 585.562,-887 579.562,-881 579.562,-875 579.562,-875 579.562,-234 579.562,-234 579.562,-228 585.562,-222 591.562,-222"/>
<text text-anchor="middle" x="806.938" y="-874.2" font-family="Times,serif" font-size="11.00" fill="gray">Exceptions</text>
</g>
<g id="clust20" class="cluster"><title>cluster_\OpenWorld\Exceptions\AbstractClasses</title>
<path fill="none" stroke="gray" d="M599.562,-492C599.562,-492 719.78,-492 719.78,-492 725.78,-492 731.78,-498 731.78,-504 731.78,-504 731.78,-551 731.78,-551 731.78,-557 725.78,-563 719.78,-563 719.78,-563 599.562,-563 599.562,-563 593.562,-563 587.562,-557 587.562,-551 587.562,-551 587.562,-504 587.562,-504 587.562,-498 593.562,-492 599.562,-492"/>
<text text-anchor="middle" x="659.671" y="-550.2" font-family="Times,serif" font-size="11.00" fill="gray">AbstractClasses</text>
</g>
<!-- \\OpenWorld\\Assertions\\GeneralClasses\\TypeAssertion -->
<g id="node1" class="node"><title>\\OpenWorld\\Assertions\\GeneralClasses\\TypeAssertion</title>
<polygon fill="none" stroke="black" points="976.714,-1761 875.086,-1761 875.086,-1725 976.714,-1725 976.714,-1761"/>
<text text-anchor="middle" x="925.9" y="-1739.7" font-family="Courier,monospace" font-size="11.00">TypeAssertion</text>
</g>
<!-- \\OpenWorld\\Assertions\\Interfaces\\AssertionInterface -->
<g id="node2" class="node"><title>\\OpenWorld\\Assertions\\Interfaces\\AssertionInterface</title>
<polygon fill="none" stroke="black" points="726.99,-1761 592.351,-1761 592.351,-1725 726.99,-1725 726.99,-1761"/>
<text text-anchor="middle" x="659.671" y="-1739.7" font-family="Courier,monospace" font-size="11.00">AssertionInterface</text>
</g>
<!-- \\OpenWorld\\Assertions\\GeneralClasses\\TypeAssertion&#45;&gt;\\OpenWorld\\Assertions\\Interfaces\\AssertionInterface -->
<g id="edge1" class="edge"><title>\\OpenWorld\\Assertions\\GeneralClasses\\TypeAssertion&#45;&gt;\\OpenWorld\\Assertions\\Interfaces\\AssertionInterface</title>
<path fill="none" stroke="black" stroke-dasharray="1,5" d="M874.89,-1743C836.164,-1743 781.844,-1743 737.595,-1743"/>
<polygon fill="none" stroke="black" points="737.45,-1739.5 727.45,-1743 737.45,-1746.5 737.45,-1739.5"/>
</g>
<!-- \\OpenWorld\\Collections\\GeneralClasses\\ArrayCollection -->
<g id="node3" class="node"><title>\\OpenWorld\\Collections\\GeneralClasses\\ArrayCollection</title>
<polygon fill="none" stroke="black" points="983.416,-1080 868.384,-1080 868.384,-1044 983.416,-1044 983.416,-1080"/>
<text text-anchor="middle" x="925.9" y="-1058.7" font-family="Courier,monospace" font-size="11.00">ArrayCollection</text>
</g>
<!-- \\OpenWorld\\Collections\\Interfaces\\CollectionInterface -->
<g id="node5" class="node"><title>\\OpenWorld\\Collections\\Interfaces\\CollectionInterface</title>
<polygon fill="none" stroke="black" points="730.592,-947 588.75,-947 588.75,-911 730.592,-911 730.592,-947"/>
<text text-anchor="middle" x="659.671" y="-925.7" font-family="Courier,monospace" font-size="11.00">CollectionInterface</text>
</g>
<!-- \\OpenWorld\\Collections\\GeneralClasses\\ArrayCollection&#45;&gt;\\OpenWorld\\Collections\\Interfaces\\CollectionInterface -->
<g id="edge2" class="edge"><title>\\OpenWorld\\Collections\\GeneralClasses\\ArrayCollection&#45;&gt;\\OpenWorld\\Collections\\Interfaces\\CollectionInterface</title>
<path fill="none" stroke="black" stroke-dasharray="1,5" d="M868.385,-1050.08C853.804,-1046.12 838.348,-1041.12 824.589,-1035 774.987,-1012.94 723.28,-976.984 691.523,-953.16"/>
<polygon fill="none" stroke="black" points="693.588,-950.333 683.504,-947.083 689.36,-955.912 693.588,-950.333"/>
</g>
<!-- \\OpenWorld\\Collections\\GeneralClasses\\AssertionStrictCollection -->
<g id="node4" class="node"><title>\\OpenWorld\\Collections\\GeneralClasses\\AssertionStrictCollection</title>
<polygon fill="none" stroke="black" points="1016.43,-1026 835.373,-1026 835.373,-990 1016.43,-990 1016.43,-1026"/>
<text text-anchor="middle" x="925.9" y="-1004.7" font-family="Courier,monospace" font-size="11.00">AssertionStrictCollection</text>
</g>
<!-- \\OpenWorld\\Collections\\GeneralClasses\\AssertionStrictCollection&#45;&gt;\\OpenWorld\\Collections\\Interfaces\\CollectionInterface -->
<g id="edge3" class="edge"><title>\\OpenWorld\\Collections\\GeneralClasses\\AssertionStrictCollection&#45;&gt;\\OpenWorld\\Collections\\Interfaces\\CollectionInterface</title>
<path fill="none" stroke="black" stroke-dasharray="1,5" d="M864.612,-989.975C824.847,-978.086 772.61,-962.468 730.958,-950.015"/>
<polygon fill="none" stroke="black" points="731.741,-946.596 721.157,-947.084 729.735,-953.302 731.741,-946.596"/>
</g>
<!-- \\Countable -->
<g id="node35" class="node"><title>\\Countable</title>
<ellipse fill="none" stroke="black" cx="373.639" cy="-180" rx="48.8273" ry="18"/>
<text text-anchor="middle" x="373.639" y="-175.8" font-family="Times,serif" font-size="14.00" fill="gray">\Countable</text>
</g>
<!-- \\OpenWorld\\Collections\\Interfaces\\CollectionInterface&#45;&gt;\\Countable -->
<g id="edge25" class="edge"><title>\\OpenWorld\\Collections\\Interfaces\\CollectionInterface&#45;&gt;\\Countable</title>
<path fill="none" stroke="black" d="M651.791,-910.856C613.923,-811 430.949,-328.493 385.083,-207.541"/>
<polygon fill="none" stroke="black" points="388.247,-206.014 381.428,-197.905 381.702,-208.496 388.247,-206.014"/>
</g>
<!-- \\IteratorAggregate -->
<g id="node36" class="node"><title>\\IteratorAggregate</title>
<ellipse fill="none" stroke="black" cx="373.639" cy="-126" rx="75.3276" ry="18"/>
<text text-anchor="middle" x="373.639" y="-121.8" font-family="Times,serif" font-size="14.00" fill="gray">\IteratorAggregate</text>
</g>
<!-- \\OpenWorld\\Collections\\Interfaces\\CollectionInterface&#45;&gt;\\IteratorAggregate -->
<g id="edge26" class="edge"><title>\\OpenWorld\\Collections\\Interfaces\\CollectionInterface&#45;&gt;\\IteratorAggregate</title>
<path fill="none" stroke="black" d="M652.628,-910.758C635.385,-858.068 585.416,-700.868 557.857,-567 539.137,-476.069 565.007,-221.051 501.857,-153 490.601,-140.87 475.363,-133.473 459.346,-129.092"/>
<polygon fill="none" stroke="black" points="459.836,-125.612 449.301,-126.739 458.239,-132.428 459.836,-125.612"/>
</g>
<!-- \\ArrayAccess -->
<g id="node37" class="node"><title>\\ArrayAccess</title>
<ellipse fill="none" stroke="black" cx="373.639" cy="-72" rx="58.465" ry="18"/>
<text text-anchor="middle" x="373.639" y="-67.8" font-family="Times,serif" font-size="14.00" fill="gray">\ArrayAccess</text>
</g>
<!-- \\OpenWorld\\Collections\\Interfaces\\CollectionInterface&#45;&gt;\\ArrayAccess -->
<g id="edge27" class="edge"><title>\\OpenWorld\\Collections\\Interfaces\\CollectionInterface&#45;&gt;\\ArrayAccess</title>
<path fill="none" stroke="black" d="M652.527,-910.779C635.011,-858.143 584.387,-701.076 557.857,-567 537.525,-464.25 572.512,-176.322 501.857,-99 486.602,-82.3056 463.81,-74.5415 441.713,-71.2753"/>
<polygon fill="none" stroke="black" points="441.983,-67.7828 431.64,-70.0752 441.155,-74.7336 441.983,-67.7828"/>
</g>
<!-- \\OpenWorld\\Collections\\Traits\\ImplementsArray -->
<g id="node6" class="node"><title>\\OpenWorld\\Collections\\Traits\\ImplementsArray</title>
<polygon fill="none" stroke="black" points="983.416,-947 868.384,-947 868.384,-911 983.416,-911 983.416,-947"/>
<text text-anchor="middle" x="925.9" y="-925.7" font-family="Courier,monospace" font-size="11.00">ImplementsArray</text>
</g>
<!-- \\OpenWorld\\Data\\AbstractClasses\\DataProviderAbstract -->
<g id="node7" class="node"><title>\\OpenWorld\\Data\\AbstractClasses\\DataProviderAbstract</title>
<polygon fill="none" stroke="black" points="733.692,-1389 585.649,-1389 585.649,-1353 733.692,-1353 733.692,-1389"/>
<text text-anchor="start" x="626.666" y="-1373.2" font-family="Courier,monospace" font-size="11.00">«abstract»</text>
<text text-anchor="start" x="593.66" y="-1362.2" font-family="Courier,monospace" font-size="11.00">DataProviderAbstract</text>
</g>
<!-- \\OpenWorld\\Data\\Interfaces\\DataProviderInterface -->
<g id="node16" class="node"><title>\\OpenWorld\\Data\\Interfaces\\DataProviderInterface</title>
<polygon fill="none" stroke="black" points="450.762,-1389 296.516,-1389 296.516,-1353 450.762,-1353 450.762,-1389"/>
<text text-anchor="middle" x="373.639" y="-1367.7" font-family="Courier,monospace" font-size="11.00">DataProviderInterface</text>
</g>
<!-- \\OpenWorld\\Data\\AbstractClasses\\DataProviderAbstract&#45;&gt;\\OpenWorld\\Data\\Interfaces\\DataProviderInterface -->
<g id="edge4" class="edge"><title>\\OpenWorld\\Data\\AbstractClasses\\DataProviderAbstract&#45;&gt;\\OpenWorld\\Data\\Interfaces\\DataProviderInterface</title>
<path fill="none" stroke="black" stroke-dasharray="1,5" d="M585.526,-1371C547.573,-1371 500.961,-1371 461.22,-1371"/>
<polygon fill="none" stroke="black" points="461.008,-1367.5 451.008,-1371 461.008,-1374.5 461.008,-1367.5"/>
</g>
<!-- \\OpenWorld\\Data\\AbstractClasses\\SourceLoaderResultAbstract -->
<g id="node8" class="node"><title>\\OpenWorld\\Data\\AbstractClasses\\SourceLoaderResultAbstract</title>
<polygon fill="none" stroke="black" points="753.299,-1335 566.043,-1335 566.043,-1299 753.299,-1299 753.299,-1335"/>
<text text-anchor="start" x="626.666" y="-1319.2" font-family="Courier,monospace" font-size="11.00">«abstract»</text>
<text text-anchor="start" x="573.857" y="-1308.2" font-family="Courier,monospace" font-size="11.00">SourceLoaderResultAbstract</text>
</g>
<!-- \\OpenWorld\\Data\\Interfaces\\SourceLoaderResultInterface -->
<g id="node20" class="node"><title>\\OpenWorld\\Data\\Interfaces\\SourceLoaderResultInterface</title>
<polygon fill="none" stroke="black" points="470.868,-1335 276.41,-1335 276.41,-1299 470.868,-1299 470.868,-1335"/>
<text text-anchor="middle" x="373.639" y="-1313.7" font-family="Courier,monospace" font-size="11.00">SourceLoaderResultInterface</text>
</g>
<!-- \\OpenWorld\\Data\\AbstractClasses\\SourceLoaderResultAbstract&#45;&gt;\\OpenWorld\\Data\\Interfaces\\SourceLoaderResultInterface -->
<g id="edge5" class="edge"><title>\\OpenWorld\\Data\\AbstractClasses\\SourceLoaderResultAbstract&#45;&gt;\\OpenWorld\\Data\\Interfaces\\SourceLoaderResultInterface</title>
<path fill="none" stroke="black" stroke-dasharray="1,5" d="M565.668,-1317C538.579,-1317 508.777,-1317 480.935,-1317"/>
<polygon fill="none" stroke="black" points="480.774,-1313.5 470.774,-1317 480.774,-1320.5 480.774,-1313.5"/>
</g>
<!-- \\OpenWorld\\Data\\GeneralClasses\\Providers\\Conditions\\DataProviderCondition -->
<g id="node9" class="node"><title>\\OpenWorld\\Data\\GeneralClasses\\Providers\\Conditions\\DataProviderCondition</title>
<polygon fill="none" stroke="black" points="1003.02,-1470 848.777,-1470 848.777,-1434 1003.02,-1434 1003.02,-1470"/>
<text text-anchor="middle" x="925.9" y="-1448.7" font-family="Courier,monospace" font-size="11.00">DataProviderCondition</text>
</g>
<!-- \\OpenWorld\\Data\\GeneralClasses\\Providers\\GeneralProvider -->
<g id="node10" class="node"><title>\\OpenWorld\\Data\\GeneralClasses\\Providers\\GeneralProvider</title>
<polygon fill="none" stroke="black" points="983.416,-1416 868.384,-1416 868.384,-1380 983.416,-1380 983.416,-1416"/>
<text text-anchor="middle" x="925.9" y="-1394.7" font-family="Courier,monospace" font-size="11.00">GeneralProvider</text>
</g>
<!-- \\OpenWorld\\Data\\GeneralClasses\\Providers\\GeneralProvider&#45;&gt;\\OpenWorld\\Data\\AbstractClasses\\DataProviderAbstract -->
<g id="edge7" class="edge"><title>\\OpenWorld\\Data\\GeneralClasses\\Providers\\GeneralProvider&#45;&gt;\\OpenWorld\\Data\\AbstractClasses\\DataProviderAbstract</title>
<path fill="none" stroke="black" d="M868.216,-1392.21C832.01,-1388.51 784.437,-1383.65 743.973,-1379.51"/>
<polygon fill="none" stroke="black" points="744.154,-1376.01 733.85,-1378.48 743.442,-1382.98 744.154,-1376.01"/>
</g>
<!-- \\OpenWorld\\Data\\GeneralClasses\\Providers\\LocaleProvider -->
<g id="node11" class="node"><title>\\OpenWorld\\Data\\GeneralClasses\\Providers\\LocaleProvider</title>
<polygon fill="none" stroke="black" points="980.316,-1362 871.484,-1362 871.484,-1326 980.316,-1326 980.316,-1362"/>
<text text-anchor="middle" x="925.9" y="-1340.7" font-family="Courier,monospace" font-size="11.00">LocaleProvider</text>
</g>
<!-- \\OpenWorld\\Data\\GeneralClasses\\Providers\\LocaleProvider&#45;&gt;\\OpenWorld\\Data\\AbstractClasses\\DataProviderAbstract -->
<g id="edge8" class="edge"><title>\\OpenWorld\\Data\\GeneralClasses\\Providers\\LocaleProvider&#45;&gt;\\OpenWorld\\Data\\AbstractClasses\\DataProviderAbstract</title>
<path fill="none" stroke="black" d="M871.429,-1349.46C834.93,-1353.19 785.839,-1358.21 744.218,-1362.46"/>
<polygon fill="none" stroke="black" points="743.679,-1359 734.087,-1363.5 744.391,-1365.96 743.679,-1359"/>
</g>
<!-- \\OpenWorld\\Data\\GeneralClasses\\SourceLoaderResults\\Factories\\JsonResultFactory -->
<g id="node12" class="node"><title>\\OpenWorld\\Data\\GeneralClasses\\SourceLoaderResults\\Factories\\JsonResultFactory</title>
<polygon fill="none" stroke="black" points="990.118,-1256 861.681,-1256 861.681,-1220 990.118,-1220 990.118,-1256"/>
<text text-anchor="middle" x="925.9" y="-1234.7" font-family="Courier,monospace" font-size="11.00">JsonResultFactory</text>
</g>
<!-- \\OpenWorld\\Data\\Interfaces\\SourceLoaderResultFactoryInterface -->
<g id="node19" class="node"><title>\\OpenWorld\\Data\\Interfaces\\SourceLoaderResultFactoryInterface</title>
<polygon fill="none" stroke="black" points="494.076,-1443 253.202,-1443 253.202,-1407 494.076,-1407 494.076,-1443"/>
<text text-anchor="middle" x="373.639" y="-1421.7" font-family="Courier,monospace" font-size="11.00">SourceLoaderResultFactoryInterface</text>
</g>
<!-- \\OpenWorld\\Data\\GeneralClasses\\SourceLoaderResults\\Factories\\JsonResultFactory&#45;&gt;\\OpenWorld\\Data\\Interfaces\\SourceLoaderResultFactoryInterface -->
<g id="edge9" class="edge"><title>\\OpenWorld\\Data\\GeneralClasses\\SourceLoaderResults\\Factories\\JsonResultFactory&#45;&gt;\\OpenWorld\\Data\\Interfaces\\SourceLoaderResultFactoryInterface</title>
<path fill="none" stroke="black" stroke-dasharray="1,5" d="M895.245,-1256.03C873.873,-1270.02 845.272,-1290.87 824.589,-1314 788.038,-1354.87 808.973,-1392.6 761.485,-1420 719.064,-1444.48 599.429,-1442.69 504.323,-1436.62"/>
<polygon fill="none" stroke="black" points="504.531,-1433.12 494.322,-1435.96 504.07,-1440.11 504.531,-1433.12"/>
</g>
<!-- \\OpenWorld\\Data\\GeneralClasses\\SourceLoaderResults\\JsonResult -->
<g id="node13" class="node"><title>\\OpenWorld\\Data\\GeneralClasses\\SourceLoaderResults\\JsonResult</title>
<polygon fill="none" stroke="black" points="966.911,-1202 884.889,-1202 884.889,-1166 966.911,-1166 966.911,-1202"/>
<text text-anchor="middle" x="925.9" y="-1180.7" font-family="Courier,monospace" font-size="11.00">JsonResult</text>
</g>
<!-- \\OpenWorld\\Data\\GeneralClasses\\SourceLoaderResults\\JsonResult&#45;&gt;\\OpenWorld\\Data\\AbstractClasses\\SourceLoaderResultAbstract -->
<g id="edge10" class="edge"><title>\\OpenWorld\\Data\\GeneralClasses\\SourceLoaderResults\\JsonResult&#45;&gt;\\OpenWorld\\Data\\AbstractClasses\\SourceLoaderResultAbstract</title>
<path fill="none" stroke="black" d="M884.798,-1190.24C866.013,-1194 843.632,-1199.7 824.589,-1208 773.825,-1230.11 721.659,-1267.9 690.2,-1292.66"/>
<polygon fill="none" stroke="black" points="687.922,-1290 682.278,-1298.96 692.281,-1295.47 687.922,-1290"/>
</g>
<!-- \\OpenWorld\\Data\\GeneralClasses\\SourceLoaders\\FileSourceLoader -->
<g id="node14" class="node"><title>\\OpenWorld\\Data\\GeneralClasses\\SourceLoaders\\FileSourceLoader</title>
<polygon fill="none" stroke="black" points="986.518,-1576 865.282,-1576 865.282,-1540 986.518,-1540 986.518,-1576"/>
<text text-anchor="middle" x="925.9" y="-1554.7" font-family="Courier,monospace" font-size="11.00">FileSourceLoader</text>
</g>
<!-- \\OpenWorld\\Data\\Interfaces\\SourceLoaderInterface -->
<g id="node18" class="node"><title>\\OpenWorld\\Data\\Interfaces\\SourceLoaderInterface</title>
<polygon fill="none" stroke="black" points="450.762,-1497 296.516,-1497 296.516,-1461 450.762,-1461 450.762,-1497"/>
<text text-anchor="middle" x="373.639" y="-1475.7" font-family="Courier,monospace" font-size="11.00">SourceLoaderInterface</text>
</g>
<!-- \\OpenWorld\\Data\\GeneralClasses\\SourceLoaders\\FileSourceLoader&#45;&gt;\\OpenWorld\\Data\\Interfaces\\SourceLoaderInterface -->
<g id="edge11" class="edge"><title>\\OpenWorld\\Data\\GeneralClasses\\SourceLoaders\\FileSourceLoader&#45;&gt;\\OpenWorld\\Data\\Interfaces\\SourceLoaderInterface</title>
<path fill="none" stroke="black" stroke-dasharray="1,5" d="M865.227,-1549.43C767.596,-1535.42 573.347,-1507.53 460.778,-1491.37"/>
<polygon fill="none" stroke="black" points="461.21,-1487.89 450.814,-1489.94 460.215,-1494.82 461.21,-1487.89"/>
</g>
<!-- \\OpenWorld\\Data\\GeneralClasses\\DataSource -->
<g id="node15" class="node"><title>\\OpenWorld\\Data\\GeneralClasses\\DataSource</title>
<polygon fill="none" stroke="black" points="966.911,-1647 884.889,-1647 884.889,-1611 966.911,-1611 966.911,-1647"/>
<text text-anchor="middle" x="925.9" y="-1625.7" font-family="Courier,monospace" font-size="11.00">DataSource</text>
</g>
<!-- \\OpenWorld\\Data\\Interfaces\\DataSourceInterface -->
<g id="node17" class="node"><title>\\OpenWorld\\Data\\Interfaces\\DataSourceInterface</title>
<polygon fill="none" stroke="black" points="181.631,-1443 39.7892,-1443 39.7892,-1407 181.631,-1407 181.631,-1443"/>
<text text-anchor="middle" x="110.71" y="-1421.7" font-family="Courier,monospace" font-size="11.00">DataSourceInterface</text>
</g>
<!-- \\OpenWorld\\Data\\GeneralClasses\\DataSource&#45;&gt;\\OpenWorld\\Data\\Interfaces\\DataSourceInterface -->
<g id="edge6" class="edge"><title>\\OpenWorld\\Data\\GeneralClasses\\DataSource&#45;&gt;\\OpenWorld\\Data\\Interfaces\\DataSourceInterface</title>
<path fill="none" stroke="black" stroke-dasharray="1,5" d="M884.692,-1626.37C778.514,-1618.44 483.022,-1589.87 253.42,-1506 214.271,-1491.7 173.329,-1467.09 145.578,-1448.74"/>
<polygon fill="none" stroke="black" points="147.305,-1445.69 137.05,-1443.03 143.408,-1451.5 147.305,-1445.69"/>
</g>
<!-- \\OpenWorld\\Data\\Interfaces\\DataProviderInterface&#45;&gt;\\OpenWorld\\Data\\Interfaces\\DataSourceInterface -->
<g id="edge28" class="edge"><title>\\OpenWorld\\Data\\Interfaces\\DataProviderInterface&#45;&gt;\\OpenWorld\\Data\\Interfaces\\DataSourceInterface</title>
<path fill="none" stroke="black" d="M296.466,-1386.76C263.613,-1393.56 225.169,-1401.52 191.882,-1408.41"/>
<polygon fill="none" stroke="black" points="190.813,-1405.06 181.729,-1410.51 192.231,-1411.91 190.813,-1405.06"/>
</g>
<!-- \\OpenWorld\\Exceptions\\AbstractClasses\\ExceptionAbstract -->
<g id="node21" class="node"><title>\\OpenWorld\\Exceptions\\AbstractClasses\\ExceptionAbstract</title>
<polygon fill="none" stroke="black" points="723.889,-536 595.452,-536 595.452,-500 723.889,-500 723.889,-536"/>
<text text-anchor="start" x="626.666" y="-520.2" font-family="Courier,monospace" font-size="11.00">«abstract»</text>
<text text-anchor="start" x="603.562" y="-509.2" font-family="Courier,monospace" font-size="11.00">ExceptionAbstract</text>
</g>
<!-- \\Exception -->
<g id="node34" class="node"><title>\\Exception</title>
<ellipse fill="none" stroke="black" cx="373.639" cy="-18" rx="40.6162" ry="18"/>
<text text-anchor="middle" x="373.639" y="-13.8" font-family="Times,serif" font-size="14.00" fill="gray">xception</text>
</g>
<!-- \\OpenWorld\\Exceptions\\AbstractClasses\\ExceptionAbstract&#45;&gt;\\Exception -->
<g id="edge12" class="edge"><title>\\OpenWorld\\Exceptions\\AbstractClasses\\ExceptionAbstract&#45;&gt;\\Exception</title>
<path fill="none" stroke="black" d="M658.647,-499.618C657.497,-428.844 643.376,-171.622 501.857,-45 480.912,-26.2598 450.258,-19.3604 424.288,-17.2177"/>
<polygon fill="none" stroke="black" points="424.424,-13.7195 414.228,-16.5993 423.994,-20.7063 424.424,-13.7195"/>
</g>
<!-- \\OpenWorld\\Exceptions\\BadDataFileContentsException -->
<g id="node22" class="node"><title>\\OpenWorld\\Exceptions\\BadDataFileContentsException</title>
<polygon fill="none" stroke="black" points="1026.23,-320 825.57,-320 825.57,-284 1026.23,-284 1026.23,-320"/>
<text text-anchor="middle" x="925.9" y="-298.7" font-family="Courier,monospace" font-size="11.00">BadDataFileContentsException</text>
</g>
<!-- \\OpenWorld\\Exceptions\\BadDataFileContentsException&#45;&gt;\\OpenWorld\\Exceptions\\AbstractClasses\\ExceptionAbstract -->
<g id="edge13" class="edge"><title>\\OpenWorld\\Exceptions\\BadDataFileContentsException&#45;&gt;\\OpenWorld\\Exceptions\\AbstractClasses\\ExceptionAbstract</title>
<path fill="none" stroke="black" d="M841.916,-320.022C835.864,-322.626 830.014,-325.601 824.589,-329 757.175,-371.231 702.322,-449.772 676.561,-491.054"/>
<polygon fill="none" stroke="black" points="673.472,-489.396 671.223,-499.749 679.438,-493.058 673.472,-489.396"/>
</g>
<!-- \\OpenWorld\\Exceptions\\DataFileNotFoundException -->
<g id="node23" class="node"><title>\\OpenWorld\\Exceptions\\DataFileNotFoundException</title>
<polygon fill="none" stroke="black" points="1016.43,-266 835.373,-266 835.373,-230 1016.43,-230 1016.43,-266"/>
<text text-anchor="middle" x="925.9" y="-244.7" font-family="Courier,monospace" font-size="11.00">DataFileNotFoundException</text>
</g>
<!-- \\OpenWorld\\Exceptions\\DataFileNotFoundException&#45;&gt;\\OpenWorld\\Exceptions\\AbstractClasses\\ExceptionAbstract -->
<g id="edge14" class="edge"><title>\\OpenWorld\\Exceptions\\DataFileNotFoundException&#45;&gt;\\OpenWorld\\Exceptions\\AbstractClasses\\ExceptionAbstract</title>
<path fill="none" stroke="black" d="M839.686,-266.136C834.375,-268.709 829.285,-271.646 824.589,-275 745.192,-331.699 692.782,-439.761 671.468,-490.455"/>
<polygon fill="none" stroke="black" points="668.193,-489.217 667.621,-499.797 674.665,-491.883 668.193,-489.217"/>
</g>
<!-- \\OpenWorld\\Exceptions\\DataFolderNotFoundException -->
<g id="node24" class="node"><title>\\OpenWorld\\Exceptions\\DataFolderNotFoundException</title>
<polygon fill="none" stroke="black" points="1023.13,-860 828.671,-860 828.671,-824 1023.13,-824 1023.13,-860"/>
<text text-anchor="middle" x="925.9" y="-838.7" font-family="Courier,monospace" font-size="11.00">DataFolderNotFoundException</text>
</g>
<!-- \\OpenWorld\\Exceptions\\DataFolderNotFoundException&#45;&gt;\\OpenWorld\\Exceptions\\AbstractClasses\\ExceptionAbstract -->
<g id="edge15" class="edge"><title>\\OpenWorld\\Exceptions\\DataFolderNotFoundException&#45;&gt;\\OpenWorld\\Exceptions\\AbstractClasses\\ExceptionAbstract</title>
<path fill="none" stroke="black" d="M838.355,-823.828C833.485,-821.263 828.847,-818.337 824.589,-815 732.974,-743.204 685.12,-605.252 668.061,-546.079"/>
<polygon fill="none" stroke="black" points="671.39,-544.987 665.318,-536.304 664.65,-546.878 671.39,-544.987"/>
</g>
<!-- \\OpenWorld\\Exceptions\\DataNotAvailableException -->
<g id="node25" class="node"><title>\\OpenWorld\\Exceptions\\DataNotAvailableException</title>
<polygon fill="none" stroke="black" points="1016.43,-806 835.373,-806 835.373,-770 1016.43,-770 1016.43,-806"/>
<text text-anchor="middle" x="925.9" y="-784.7" font-family="Courier,monospace" font-size="11.00">DataNotAvailableException</text>
</g>
<!-- \\OpenWorld\\Exceptions\\DataNotAvailableException&#45;&gt;\\OpenWorld\\Exceptions\\AbstractClasses\\ExceptionAbstract -->
<g id="edge16" class="edge"><title>\\OpenWorld\\Exceptions\\DataNotAvailableException&#45;&gt;\\OpenWorld\\Exceptions\\AbstractClasses\\ExceptionAbstract</title>
<path fill="none" stroke="black" d="M839.686,-769.864C834.375,-767.291 829.285,-764.354 824.589,-761 745.192,-704.301 692.782,-596.239 671.468,-545.545"/>
<polygon fill="none" stroke="black" points="674.665,-544.117 667.621,-536.203 668.193,-546.783 674.665,-544.117"/>
</g>
<!-- \\OpenWorld\\Exceptions\\FileNotFoundException -->
<g id="node26" class="node"><title>\\OpenWorld\\Exceptions\\FileNotFoundException</title>
<polygon fill="none" stroke="black" points="1003.02,-752 848.777,-752 848.777,-716 1003.02,-716 1003.02,-752"/>
<text text-anchor="middle" x="925.9" y="-730.7" font-family="Courier,monospace" font-size="11.00">FileNotFoundException</text>
</g>
<!-- \\OpenWorld\\Exceptions\\FileNotFoundException&#45;&gt;\\OpenWorld\\Exceptions\\AbstractClasses\\ExceptionAbstract -->
<g id="edge17" class="edge"><title>\\OpenWorld\\Exceptions\\FileNotFoundException&#45;&gt;\\OpenWorld\\Exceptions\\AbstractClasses\\ExceptionAbstract</title>
<path fill="none" stroke="black" d="M848.636,-718.692C840.206,-715.497 832.001,-711.644 824.589,-707 757.175,-664.769 702.322,-586.228 676.561,-544.946"/>
<polygon fill="none" stroke="black" points="679.438,-542.942 671.223,-536.251 673.472,-546.604 679.438,-542.942"/>
</g>
<!-- \\OpenWorld\\Exceptions\\FileNotValidException -->
<g id="node27" class="node"><title>\\OpenWorld\\Exceptions\\FileNotValidException</title>
<polygon fill="none" stroke="black" points="1003.02,-698 848.777,-698 848.777,-662 1003.02,-662 1003.02,-698"/>
<text text-anchor="middle" x="925.9" y="-676.7" font-family="Courier,monospace" font-size="11.00">FileNotValidException</text>
</g>
<!-- \\OpenWorld\\Exceptions\\FileNotValidException&#45;&gt;\\OpenWorld\\Exceptions\\AbstractClasses\\ExceptionAbstract -->
<g id="edge18" class="edge"><title>\\OpenWorld\\Exceptions\\FileNotValidException&#45;&gt;\\OpenWorld\\Exceptions\\AbstractClasses\\ExceptionAbstract</title>
<path fill="none" stroke="black" d="M848.556,-663.162C840.272,-660.251 832.123,-656.884 824.589,-653 768.701,-624.192 714.528,-573.852 684.589,-543.455"/>
<polygon fill="none" stroke="black" points="686.995,-540.908 677.513,-536.181 681.978,-545.79 686.995,-540.908"/>
</g>
<!-- \\OpenWorld\\Exceptions\\InvalidContentException -->
<g id="node28" class="node"><title>\\OpenWorld\\Exceptions\\InvalidContentException</title>
<polygon fill="none" stroke="black" points="1009.72,-644 842.075,-644 842.075,-608 1009.72,-608 1009.72,-644"/>
<text text-anchor="middle" x="925.9" y="-622.7" font-family="Courier,monospace" font-size="11.00">InvalidContentException</text>
</g>
<!-- \\OpenWorld\\Exceptions\\InvalidContentException&#45;&gt;\\OpenWorld\\Exceptions\\AbstractClasses\\ExceptionAbstract -->
<g id="edge19" class="edge"><title>\\OpenWorld\\Exceptions\\InvalidContentException&#45;&gt;\\OpenWorld\\Exceptions\\AbstractClasses\\ExceptionAbstract</title>
<path fill="none" stroke="black" d="M851.231,-607.955C842.172,-605.215 833.109,-602.216 824.589,-599 781.156,-582.605 733.851,-558.507 701.272,-540.857"/>
<polygon fill="none" stroke="black" points="702.944,-537.782 692.49,-536.062 699.589,-543.926 702.944,-537.782"/>
</g>
<!-- \\OpenWorld\\Exceptions\\InvalidDataFileException -->
<g id="node29" class="node"><title>\\OpenWorld\\Exceptions\\InvalidDataFileException</title>
<polygon fill="none" stroke="black" points="1013.33,-590 838.474,-590 838.474,-554 1013.33,-554 1013.33,-590"/>
<text text-anchor="middle" x="925.9" y="-568.7" font-family="Courier,monospace" font-size="11.00">InvalidDataFileException</text>
</g>
<!-- \\OpenWorld\\Exceptions\\InvalidDataFileException&#45;&gt;\\OpenWorld\\Exceptions\\AbstractClasses\\ExceptionAbstract -->
<g id="edge20" class="edge"><title>\\OpenWorld\\Exceptions\\InvalidDataFileException&#45;&gt;\\OpenWorld\\Exceptions\\AbstractClasses\\ExceptionAbstract</title>
<path fill="none" stroke="black" d="M838.381,-554.318C804.555,-547.405 766.182,-539.563 733.773,-532.94"/>
<polygon fill="none" stroke="black" points="734.417,-529.499 723.918,-530.926 733.015,-536.357 734.417,-529.499"/>
</g>
<!-- \\OpenWorld\\Exceptions\\InvalidLocaleException -->
<g id="node30" class="node"><title>\\OpenWorld\\Exceptions\\InvalidLocaleException</title>
<polygon fill="none" stroke="black" points="1006.62,-536 845.176,-536 845.176,-500 1006.62,-500 1006.62,-536"/>
<text text-anchor="middle" x="925.9" y="-514.7" font-family="Courier,monospace" font-size="11.00">InvalidLocaleException</text>
</g>
<!-- \\OpenWorld\\Exceptions\\InvalidLocaleException&#45;&gt;\\OpenWorld\\Exceptions\\AbstractClasses\\ExceptionAbstract -->
<g id="edge21" class="edge"><title>\\OpenWorld\\Exceptions\\InvalidLocaleException&#45;&gt;\\OpenWorld\\Exceptions\\AbstractClasses\\ExceptionAbstract</title>
<path fill="none" stroke="black" d="M845.264,-518C809.859,-518 768.449,-518 733.833,-518"/>
<polygon fill="none" stroke="black" points="733.792,-514.5 723.792,-518 733.792,-521.5 733.792,-514.5"/>
</g>
<!-- \\OpenWorld\\Exceptions\\InvalidTypeException -->
<g id="node31" class="node"><title>\\OpenWorld\\Exceptions\\InvalidTypeException</title>
<polygon fill="none" stroke="black" points="999.921,-482 851.878,-482 851.878,-446 999.921,-446 999.921,-482"/>
<text text-anchor="middle" x="925.9" y="-460.7" font-family="Courier,monospace" font-size="11.00">InvalidTypeException</text>
</g>
<!-- \\OpenWorld\\Exceptions\\InvalidTypeException&#45;&gt;\\OpenWorld\\Exceptions\\AbstractClasses\\ExceptionAbstract -->
<g id="edge22" class="edge"><title>\\OpenWorld\\Exceptions\\InvalidTypeException&#45;&gt;\\OpenWorld\\Exceptions\\AbstractClasses\\ExceptionAbstract</title>
<path fill="none" stroke="black" d="M851.648,-478.97C815.072,-486.445 770.93,-495.467 734.301,-502.952"/>
<polygon fill="none" stroke="black" points="733.279,-499.589 724.182,-505.02 734.681,-506.447 733.279,-499.589"/>
</g>
<!-- \\OpenWorld\\Exceptions\\NotImplementedException -->
<g id="node32" class="node"><title>\\OpenWorld\\Exceptions\\NotImplementedException</title>
<polygon fill="none" stroke="black" points="1009.72,-428 842.075,-428 842.075,-392 1009.72,-392 1009.72,-428"/>
<text text-anchor="middle" x="925.9" y="-406.7" font-family="Courier,monospace" font-size="11.00">NotImplementedException</text>
</g>
<!-- \\OpenWorld\\Exceptions\\NotImplementedException&#45;&gt;\\OpenWorld\\Exceptions\\AbstractClasses\\ExceptionAbstract -->
<g id="edge23" class="edge"><title>\\OpenWorld\\Exceptions\\NotImplementedException&#45;&gt;\\OpenWorld\\Exceptions\\AbstractClasses\\ExceptionAbstract</title>
<path fill="none" stroke="black" d="M851.231,-428.045C842.172,-430.785 833.109,-433.784 824.589,-437 781.156,-453.395 733.851,-477.493 701.272,-495.143"/>
<polygon fill="none" stroke="black" points="699.589,-492.074 692.49,-499.938 702.944,-498.218 699.589,-492.074"/>
</g>
<!-- \\OpenWorld\\Exceptions\\ValueNotInListException -->
<g id="node33" class="node"><title>\\OpenWorld\\Exceptions\\ValueNotInListException</title>
<polygon fill="none" stroke="black" points="1009.72,-374 842.075,-374 842.075,-338 1009.72,-338 1009.72,-374"/>
<text text-anchor="middle" x="925.9" y="-352.7" font-family="Courier,monospace" font-size="11.00">ValueNotInListException</text>
</g>
<!-- \\OpenWorld\\Exceptions\\ValueNotInListException&#45;&gt;\\OpenWorld\\Exceptions\\AbstractClasses\\ExceptionAbstract -->
<g id="edge24" class="edge"><title>\\OpenWorld\\Exceptions\\ValueNotInListException&#45;&gt;\\OpenWorld\\Exceptions\\AbstractClasses\\ExceptionAbstract</title>
<path fill="none" stroke="black" d="M845.128,-374.072C838.03,-376.69 831.081,-379.653 824.589,-383 768.701,-411.808 714.528,-462.148 684.589,-492.545"/>
<polygon fill="none" stroke="black" points="681.978,-490.21 677.513,-499.819 686.995,-495.092 681.978,-490.21"/>
</g>
</g>
</svg>
